<svg width="157" height="170" viewBox="0 0 157 170" fill="none" xmlns="http://www.w3.org/2000/svg">
<rect x="2" y="2" width="148" height="166" rx="26" stroke="#E7F1FA" stroke-width="4"/>
<rect x="27" y="48" width="30" height="5" rx="2.5" fill="#E7F1FA"/>
<rect x="27" y="84" width="75" height="5" rx="2.5" fill="#E7F1FA"/>
<rect x="27" y="120" width="75" height="5" rx="2.5" fill="#E7F1FA"/>
<path d="M77.4773 38.7841V37.0227C79.0587 37.0227 80.1619 36.6913 80.7869 36.0284C81.4214 35.3655 81.7386 34.2576 81.7386 32.7045V28.1591C81.7386 26.8523 81.8617 25.7206 82.108 24.7642C82.3636 23.8078 82.7756 23.017 83.3438 22.392C83.9119 21.767 84.6695 21.303 85.6165 21C86.5634 20.697 87.733 20.5455 89.125 20.5455V23.3295C88.0265 23.3295 87.16 23.5 86.5256 23.8409C85.9006 24.1818 85.4555 24.7121 85.1903 25.4318C84.9347 26.142 84.8068 27.0511 84.8068 28.1591V33.8409C84.8068 34.5795 84.7074 35.2519 84.5085 35.858C84.3191 36.464 83.964 36.9848 83.4432 37.4205C82.9223 37.8561 82.179 38.1922 81.2131 38.429C80.2566 38.6657 79.0114 38.7841 77.4773 38.7841ZM89.125 56.9091C87.733 56.9091 86.5634 56.7576 85.6165 56.4545C84.6695 56.1515 83.9119 55.6875 83.3438 55.0625C82.7756 54.4375 82.3636 53.6468 82.108 52.6903C81.8617 51.7339 81.7386 50.6023 81.7386 49.2955V44.75C81.7386 43.197 81.4214 42.089 80.7869 41.4261C80.1619 40.7633 79.0587 40.4318 77.4773 40.4318V38.6705C79.0114 38.6705 80.2566 38.7888 81.2131 39.0256C82.179 39.2623 82.9223 39.5985 83.4432 40.0341C83.964 40.4697 84.3191 40.9905 84.5085 41.5966C84.7074 42.2027 84.8068 42.875 84.8068 43.6136V49.2955C84.8068 50.4034 84.9347 51.3125 85.1903 52.0227C85.4555 52.733 85.9006 53.2585 86.5256 53.5994C87.16 53.9498 88.0265 54.125 89.125 54.125V56.9091ZM77.4773 40.4318V37.0227H80.8295V40.4318H77.4773ZM137.254 38.6705V40.4318C135.672 40.4318 134.564 40.7633 133.93 41.4261C133.305 42.089 132.992 43.197 132.992 44.75V49.2955C132.992 50.6023 132.864 51.7339 132.609 52.6903C132.362 53.6468 131.955 54.4375 131.387 55.0625C130.819 55.6875 130.061 56.1515 129.114 56.4545C128.167 56.7576 126.998 56.9091 125.606 56.9091V54.125C126.704 54.125 127.566 53.9498 128.191 53.5994C128.826 53.2585 129.271 52.733 129.526 52.0227C129.791 51.3125 129.924 50.4034 129.924 49.2955V43.6136C129.924 42.875 130.019 42.2027 130.208 41.5966C130.407 40.9905 130.767 40.4697 131.288 40.0341C131.808 39.5985 132.547 39.2623 133.504 39.0256C134.469 38.7888 135.719 38.6705 137.254 38.6705ZM125.606 20.5455C126.998 20.5455 128.167 20.697 129.114 21C130.061 21.303 130.819 21.767 131.387 22.392C131.955 23.017 132.362 23.8078 132.609 24.7642C132.864 25.7206 132.992 26.8523 132.992 28.1591V32.7045C132.992 34.2576 133.305 35.3655 133.93 36.0284C134.564 36.6913 135.672 37.0227 137.254 37.0227V38.7841C135.719 38.7841 134.469 38.6657 133.504 38.429C132.547 38.1922 131.808 37.8561 131.288 37.4205C130.767 36.9848 130.407 36.464 130.208 35.858C130.019 35.2519 129.924 34.5795 129.924 33.8409V28.1591C129.924 27.0511 129.791 26.142 129.526 25.4318C129.271 24.7121 128.826 24.1818 128.191 23.8409C127.566 23.5 126.704 23.3295 125.606 23.3295V20.5455ZM137.254 37.0227V40.4318H133.901V37.0227H137.254Z" fill="#389FFF"/>
<path d="M108.167 55.6667C105.611 55.6667 103.444 54.7778 101.667 53C99.8889 51.2222 99 49.0556 99 46.5V29C99 27.1667 99.6528 25.5972 100.958 24.2917C102.264 22.9861 103.833 22.3333 105.667 22.3333C107.5 22.3333 109.069 22.9861 110.375 24.2917C111.681 25.5972 112.333 27.1667 112.333 29V44.8333C112.333 46 111.931 46.9861 111.125 47.7917C110.319 48.5972 109.333 49 108.167 49C107 49 106.014 48.5972 105.208 47.7917C104.403 46.9861 104 46 104 44.8333V29H106.5V44.8333C106.5 45.3056 106.66 45.7014 106.979 46.0208C107.299 46.3403 107.694 46.5 108.167 46.5C108.639 46.5 109.035 46.3403 109.354 46.0208C109.674 45.7014 109.833 45.3056 109.833 44.8333V29C109.833 27.8333 109.431 26.8472 108.625 26.0417C107.819 25.2361 106.833 24.8333 105.667 24.8333C104.5 24.8333 103.514 25.2361 102.708 26.0417C101.903 26.8472 101.5 27.8333 101.5 29V46.5C101.5 48.3333 102.153 49.9028 103.458 51.2083C104.764 52.5139 106.333 53.1667 108.167 53.1667C110 53.1667 111.569 52.5139 112.875 51.2083C114.181 49.9028 114.833 48.3333 114.833 46.5V29H117.333V46.5C117.333 49.0556 116.444 51.2222 114.667 53C112.889 54.7778 110.722 55.6667 108.167 55.6667Z" fill="#389FFF"/>
</svg>
